Coordinates
version=1
nRows=13
nColumns=40
inDegrees=yes

Units are S.I. units (second, meters, Newtons, ...)
Angles are in degrees.

endheader
time	pelvis_tilt	pelvis_list	pelvis_rotation	pelvis_tx	pelvis_ty	pelvis_tz	hip_flexion_r	hip_adduction_r	hip_rotation_r	knee_angle_r	knee_angle_r_beta	ankle_angle_r	subtalar_angle_r	mtp_angle_r	hip_flexion_l	hip_adduction_l	hip_rotation_l	knee_angle_l	knee_angle_l_beta	ankle_angle_l	subtalar_angle_l	mtp_angle_l	lumbar_extension	lumbar_bending	lumbar_rotation	arm_flex_r	arm_add_r	arm_rot_r	elbow_flex_r	pro_sup_r	wrist_flex_r	wrist_dev_r	arm_flex_l	arm_add_l	arm_rot_l	elbow_flex_l	pro_sup_l	wrist_flex_l	wrist_dev_l
     23.89928571	     -4.90509061	     -5.45023222	      5.53962823	      1.03033510	      0.92711878	      0.50114284	     11.79907995	      3.67244398	    -16.41953554	     17.67269515	     17.67269515	     12.49827153	     -4.07409361	     -1.96215115	     41.72097165	    -10.33567606	      4.67786599	     61.19361782	     61.19361782	      8.90799882	    -18.91653436	     15.55360825	    -12.46411511	      4.71317782	      2.58844032	     16.55947140	    -15.93426302	     -7.93825095	     65.56289911	     45.26804856	      0.00000000	      0.00000000	      2.66942564	     -8.06284193	     -0.97258637	     25.28858233	     46.87595942	      0.00000000	      0.00000000
     23.91107143	     -5.01459085	     -5.44371414	      5.69414637	      1.02857471	      0.92725183	      0.50081326	     11.06879536	      3.78479180	    -16.47291012	     16.93195189	     16.93195189	     12.66382158	     -3.79722443	     -2.04296708	     42.47574408	     -9.88971079	      4.75884914	     58.55947369	     58.55947369	      8.97157498	    -18.82817915	     15.70437918	    -12.47019383	      4.67498647	      2.60928602	     18.87840723	    -16.16308657	     -7.68917275	     68.01159376	     45.18908216	      0.00000000	      0.00000000	      1.22538092	     -7.88404521	     -0.74227537	     23.97505747	     46.80362587	      0.00000000	      0.00000000
     23.92285714	     -5.24914045	     -5.47803896	      5.75326587	      1.02683957	      0.92705099	      0.50044174	     10.55447822	      3.90345697	    -16.49273179	     16.35166162	     16.35166162	     12.84723985	     -3.53872496	     -2.11913355	     43.20642248	     -9.44856206	      4.93441682	     55.74947527	     55.74947527	      9.10085795	    -18.64003193	     15.80920264	    -12.27368953	      4.60586372	      3.10517352	     21.19795886	    -16.75557541	     -7.70899185	     69.78625492	     45.14246329	      0.00000000	      0.00000000	     -0.13524936	     -7.61396883	     -0.60514969	     23.23100390	     46.74830716	      0.00000000	      0.00000000
     23.93464286	     -5.27721131	     -5.54429393	      5.88274325	      1.02539287	      0.92720930	      0.49981781	      9.52692587	      4.11703295	    -16.70997373	     15.24222031	     15.24222031	     12.93482331	     -2.83167227	     -2.23004097	     43.49661538	     -8.96358469	      5.32241560	     52.66048637	     52.66048637	      9.09013441	    -18.38385305	     15.63916804	    -12.36899296	      4.70393560	      2.88805863	     23.51273500	    -16.68925634	     -7.19248749	     72.94201045	     45.03239852	      0.00000000	      0.00000000	     -1.78829011	     -7.50494843	     -0.31564560	     22.32080313	     46.65155211	      0.00000000	      0.00000000
     23.94642857	     -5.38999309	     -5.68931110	      5.94977684	      1.02403913	      0.92703333	      0.49908567	      8.62185930	      4.37528171	    -17.02166347	     14.19726144	     14.19726144	     12.98810492	     -1.90323157	     -2.51032127	     43.72393726	     -8.57293380	      5.79776518	     49.43814898	     49.43814898	      9.07389766	    -17.84948862	     15.04367597	    -12.35244631	      4.86258814	      3.09566884	     25.62648563	    -17.17364653	     -6.53551431	     76.16739038	     44.91891383	      0.00000000	      0.00000000	     -3.43472213	     -7.29855866	      0.07069964	     21.98648487	     46.52100822	      0.00000000	      0.00000000
     23.95821429	     -5.51076700	     -5.87550581	      5.94423085	      1.02298115	      0.92662552	      0.49836873	      7.73541227	      4.66657326	    -17.38361976	     13.19334148	     13.19334148	     12.84272363	     -0.97941564	     -3.61714743	     43.68822497	     -8.36983506	      6.14001584	     45.89046160	     45.89046160	      8.14616749	    -17.24094230	     11.89162605	    -12.27053453	      5.11818772	      4.08291496	     27.00197279	    -18.39969080	     -6.00810672	     80.15087875	     44.98306160	      0.00000000	      0.00000000	     -5.71809158	     -8.39197891	      8.94121518	     24.30771032	     44.73970592	      0.00000000	      0.00000000
     23.97000000	     -5.62534316	     -6.01744214	      5.89503878	      1.02211432	      0.92626159	      0.49755182	      6.79330335	      4.94630695	    -17.51355424	     12.14290637	     12.14290637	     12.97195557	     -0.13540945	     -3.62252486	     43.54011470	     -8.12630276	      6.54494688	     42.47564880	     42.47564880	      8.48722869	    -16.12580907	     12.04991968	    -12.12298439	      5.27350611	      4.42939622	     29.37657368	    -18.52023882	     -6.03114645	     82.05371215	     44.93605468	      0.00000000	      0.00000000	     -7.31753284	     -8.21929456	      9.01960495	     24.12513109	     44.70304471	      0.00000000	      0.00000000
     23.98178571	     -5.65468372	     -6.29938024	      5.86714095	      1.02163424	      0.92571756	      0.49659943	      5.62518642	      5.34902557	    -18.22099777	     10.88881806	     10.88881806	     13.05404596	      1.65465722	     -3.94769840	     43.18398469	     -8.08961289	      6.94515250	     39.06606867	     39.06606867	      8.73024044	    -14.79099638	     11.58832769	    -12.09881933	      5.61058604	      4.69653725	     31.44867797	    -19.01196953	     -5.20337893	     85.08910552	     44.84155681	      0.00000000	      0.00000000	     -9.56458360	     -8.26121870	      9.36590677	     25.78233143	     44.61286433	      0.00000000	      0.00000000
     23.99357143	     -5.70816841	     -6.56620453	      5.76446079	      1.02137848	      0.92497802	      0.49568337	      4.54487546	      5.76095390	    -18.54681247	      9.76262377	      9.76262377	     13.14741496	      2.96136013	     -4.11038271	     42.71920981	     -8.13821173	      7.17869307	     35.77416453	     35.77416453	      9.02038563	    -13.44844894	     11.69707562	    -11.94812628	      5.90246549	      4.98520780	     33.73442151	    -19.17221569	     -4.75892938	     87.13579666	     44.80602469	      0.00000000	      0.00000000	    -11.75790130	     -8.43738387	     10.40021830	     27.22334735	     44.44348939	      0.00000000	      0.00000000
     24.00535714	     -5.70382331	     -6.80700244	      5.62101573	      1.02147380	      0.92417694	      0.49469770	      3.36704562	      6.17244900	    -18.67437998	      8.62424748	      8.62424748	     13.26625000	      4.02822214	     -4.09923423	     42.04419453	     -8.24959775	      7.22050417	     32.62687989	     32.62687989	      9.38048824	    -12.19896844	     12.22139204	    -11.81558839	      6.16967482	      5.30508029	     35.95742326	    -19.10167293	     -4.66922644	     88.89693747	     44.76304649	      0.00000000	      0.00000000	    -13.42223426	     -8.28117998	     10.68926309	     27.24352963	     44.37887904	      0.00000000	      0.00000000
     24.01714286	     -5.68064478	     -7.13131218	      5.47735454	      1.02189864	      0.92308010	      0.49361706	      2.11842626	      6.65389378	    -19.06596719	      7.43085269	      7.43085269	     13.41794126	      5.59014963	     -4.11317336	     41.36401496	     -8.48260577	      7.11542331	     29.89053363	     29.89053363	      9.71288154	    -11.09158712	     12.97177235	    -11.65959849	      6.55602884	      5.54536024	     38.09244337	    -19.12749700	     -4.16338246	     91.01625067	     44.70060383	      0.00000000	      0.00000000	    -15.39177577	     -8.22686305	     11.08820777	     28.12119482	     44.29335134	      0.00000000	      0.00000000
     24.02892857	     -5.67117643	     -7.31699023	      5.24951161	      1.02251986	      0.92182189	      0.49246532	      1.06393259	      6.92369414	    -19.16119308	      6.66072521	      6.66072521	     13.71178516	      6.63671740	     -4.12935709	     40.55772826	     -8.64789794	      6.71496138	     27.42455125	     27.42455125	      9.88232149	    -10.39247720	     13.74485153	    -11.46428894	      6.74218024	      5.87981352	     40.12160607	    -19.09282389	     -3.83854436	     92.65486706	     44.65545968	      0.00000000	      0.00000000	    -17.15150844	     -8.15095253	     11.40333825	     28.69292176	     44.22459189	      0.00000000	      0.00000000
     24.04071429	     -5.66956486	     -7.54462892	      5.01392424	      1.02332915	      0.92033189	      0.49122277	      0.08495603	      7.16729254	    -19.55992037	      6.07128432	      6.07128432	     14.23057066	      8.19258996	     -3.79516269	     39.82999373	     -8.87646106	      6.16535694	     25.51580214	     25.51580214	     10.00662174	     -9.89700787	     14.97742528	    -11.24181442	      6.98716265	      5.96944774	     42.22073832	    -19.12527448	     -2.81758970	     94.37495309	     44.61918178	      0.00000000	      0.00000000	    -19.68656586	     -8.53576143	     12.67595255	     31.46536212	     44.05668652	      0.00000000	      0.00000000
